<?xml version="1.0" encoding="UTF-8" standalone="no"?>
<!-- Created with Inkscape (http://www.inkscape.org/) -->

<svg
   width="964"
   height="108"
   viewBox="0 0 964 108"
   version="1.1"
   id="svg5"
   xmlns="http://www.w3.org/2000/svg"
   xmlns:svg="http://www.w3.org/2000/svg">
  <defs
     id="defs2" />
  <g
     id="layer1">
    <g
       id="g255"
       transform="matrix(1.2647521,0,0,1.2647521,520.82673,-80.221602)">
      <polygon
         id="Bildmarke_183_x2F_0_x2F_50"
         fill="#b70032"
         points="292.288,115.25 292.288,131.715 349.322,98.786 292.288,65.857 292.288,82.321 320.805,98.786 " />
      <polygon
         points="90.554,84.529 98.787,84.529 82.322,113.047 65.857,84.529 74.089,84.529 82.322,98.788 "
         id="polygon231" />
      <path
         d="m 217.754,83.819 c -8.269,0 -14.972,6.703 -14.972,14.972 0,8.269 6.703,14.971 14.972,14.971 8.269,0 14.972,-6.703 14.972,-14.971 0,-8.269 -6.703,-14.972 -14.972,-14.972 z m 0.001,22.849 c -4.351,0 -7.878,-3.527 -7.878,-7.878 0,-4.351 3.527,-7.877 7.878,-7.877 4.351,0 7.878,3.527 7.878,7.877 0,4.352 -3.528,7.878 -7.878,7.878 z"
         id="path233" />
      <path
         d="m 155.121,106.668 c -4.351,0 -7.878,-3.527 -7.878,-7.878 0,-4.351 3.527,-7.877 7.878,-7.877 2.174,0 4.143,0.881 5.568,2.305 l 5.016,-5.016 c -2.709,-2.708 -6.451,-4.383 -10.584,-4.383 -8.269,0 -14.972,6.703 -14.972,14.972 0,8.269 6.703,14.971 14.972,14.971 4.136,0 7.879,-1.676 10.589,-4.387 l -5.016,-5.016 c -1.426,1.427 -3.397,2.309 -5.573,2.309 z"
         id="path235" />
      <polygon
         points="197.825,84.529 171.446,84.529 171.446,90.946 181.071,90.946 181.071,113.047 188.201,113.047 188.201,90.946 197.825,90.946 "
         id="polygon237" />
      <polygon
         points="126.891,95.366 115.198,95.366 115.198,90.946 130.17,90.946 130.17,84.529 108.069,84.529 108.069,113.047 130.17,113.047 130.17,106.63 115.198,106.63 115.198,101.64 126.891,101.64 "
         id="polygon239" />
      <path
         d="m 270.187,94.047 c 0,-5.25 -4.255,-9.518 -9.505,-9.518 h -17.587 v 28.518 h 7.129 v -9.482 h 6.244 l 5.487,9.482 h 8.231 l -5.899,-10.231 c 3.461,-1.421 5.9,-4.796 5.9,-8.769 z m -10.164,3.173 h -9.798 v -6.346 h 9.796 c 1.689,0.074 3.037,1.466 3.037,3.173 0,1.706 -1.347,3.098 -3.035,3.173 z"
         id="path241" />
    </g>
    <g
       id="g12"
       transform="matrix(0.23835486,0,0,-0.23835486,-34.556022,194.0552)">
      <path
         d="m 196.75,374.32 v 34.075 H 169.348 V 374.32 h -9.903 v 71.797 h 9.903 v -29.492 h 27.402 v 29.492 h 10.117 V 374.32 H 196.75"
         style="fill:#231f20;fill-opacity:1;fill-rule:nonzero;stroke:none"
         id="path14" />
      <path
         d="m 255.832,439.555 c -12.715,0 -17.812,-9.481 -17.812,-27.93 0,-18.34 4.265,-30.848 18.339,-30.848 11.153,0 17.5,8.028 17.5,28.036 0,19.492 -4.472,30.742 -18.027,30.742 z m 0.527,-66.387 c -19.804,0 -29.601,15.742 -29.601,37.305 0,23.664 11.457,36.894 29.074,36.894 21.152,0 29.492,-17.605 29.492,-37.617 0,-21.992 -10.734,-36.582 -28.965,-36.582"
         style="fill:#231f20;fill-opacity:1;fill-rule:nonzero;stroke:none"
         id="path16" />
      <path
         d="m 332.219,373.277 c -9.387,0 -16.895,3.856 -22.305,10.731 -5.109,6.562 -7.812,15.215 -7.812,25.644 0,8.332 1.66,15.528 4.687,21.36 5.313,10.215 14.793,16.465 25.84,16.465 6.777,0 13.133,-1.985 17.617,-5.625 l -4.902,-6.575 c -3.965,2.93 -7.922,4.18 -12.715,4.18 -7.09,0 -12.609,-3.652 -15.938,-10.32 -2.304,-4.582 -3.449,-10.637 -3.449,-19.289 0,-8.016 0.832,-12.715 2.61,-16.875 3.339,-7.93 10,-11.68 17.617,-11.68 5.515,0 9.375,1.465 13.23,4.492 l 4.895,-6.57 c -5.52,-3.957 -12.09,-5.938 -19.375,-5.938"
         style="fill:#231f20;fill-opacity:1;fill-rule:nonzero;stroke:none"
         id="path18" />
      <path
         d="m 406.719,374.32 v 34.075 h -27.41 V 374.32 h -9.903 v 71.797 h 9.903 v -29.492 h 27.41 v 29.492 h 10.109 V 374.32 h -10.109"
         style="fill:#231f20;fill-opacity:1;fill-rule:nonzero;stroke:none"
         id="path20" />
      <path
         d="m 459.336,372.965 c -8.231,0 -16.152,2.078 -23.133,6.355 l 3.965,7.715 c 6.25,-3.867 12.187,-5.945 19.375,-5.945 9.383,0 15.527,4.793 15.527,12.508 0,5.84 -3.847,9.902 -11.875,12.187 l -7.5,2.188 c -10.84,3.125 -16.992,8.34 -16.992,18.554 0,12.403 9.59,20.84 23.77,20.84 7.91,0 15.625,-2.285 21.98,-6.765 l -4.48,-7.09 c -6.672,4.07 -11.153,5.633 -17.09,5.633 -8.028,0 -13.028,-4.18 -13.028,-10.84 0,-5.117 2.918,-8.028 10.625,-10.321 l 8.446,-2.5 c 9.582,-2.812 17.512,-9.074 17.512,-20.226 0,-10 -8.243,-22.293 -27.102,-22.293"
         style="fill:#231f20;fill-opacity:1;fill-rule:nonzero;stroke:none"
         id="path22" />
      <path
         d="m 532.805,373.277 c -9.387,0 -16.895,3.856 -22.309,10.731 -5.105,6.562 -7.808,15.215 -7.808,25.644 0,8.332 1.66,15.528 4.683,21.36 5.317,10.215 14.797,16.465 25.844,16.465 6.777,0 13.133,-1.985 17.613,-5.625 l -4.898,-6.575 c -3.965,2.93 -7.922,4.18 -12.715,4.18 -7.094,0 -12.61,-3.652 -15.938,-10.32 -2.304,-4.582 -3.449,-10.637 -3.449,-19.289 0,-8.016 0.832,-12.715 2.61,-16.875 3.339,-7.93 10,-11.68 17.617,-11.68 5.515,0 9.375,1.465 13.23,4.492 l 4.895,-6.57 c -5.52,-3.957 -12.09,-5.938 -19.375,-5.938"
         style="fill:#231f20;fill-opacity:1;fill-rule:nonzero;stroke:none"
         id="path24" />
      <path
         d="m 607.297,374.32 v 34.075 H 579.895 V 374.32 h -9.903 v 71.797 h 9.903 v -29.492 h 27.402 v 29.492 h 10.117 V 374.32 h -10.117"
         style="fill:#231f20;fill-opacity:1;fill-rule:nonzero;stroke:none"
         id="path26" />
      <path
         d="m 684.512,381.605 c -3.641,-4.472 -9.578,-8.437 -20.633,-8.437 -10.844,0 -18.027,3.437 -21.68,10 -1.875,3.34 -2.285,5.324 -2.285,12.824 v 50.125 H 650.02 V 399.75 c 0,-5.215 0.515,-11.57 2.609,-13.965 1.973,-2.305 5.625,-4.07 11.355,-4.07 5.422,0 9.387,1.668 11.672,4.695 1.778,2.285 2.606,6.145 2.606,11.875 v 47.832 h 10.011 V 396.82 c 0,-9.062 -0.527,-11.25 -3.761,-15.215"
         style="fill:#231f20;fill-opacity:1;fill-rule:nonzero;stroke:none"
         id="path28" />
      <path
         d="m 746.613,374.32 h -35.851 v 71.797 h 10.215 v -63.465 h 27.304 l -1.668,-8.332"
         style="fill:#231f20;fill-opacity:1;fill-rule:nonzero;stroke:none"
         id="path30" />
      <path
         d="m 763.488,374.32 v 71.797 h 39.082 l -1.359,-8.222 H 773.703 V 416 h 23.027 v -8.437 h -23.027 v -24.59 h 30.02 v -8.653 h -40.235"
         style="fill:#231f20;fill-opacity:1;fill-rule:nonzero;stroke:none"
         id="path32" />
      <path
         d="m 900.617,374.32 v 34.075 H 873.215 V 374.32 h -9.902 v 71.797 h 9.902 v -29.492 h 27.402 v 29.492 h 10.106 V 374.32 h -10.106"
         style="fill:#231f20;fill-opacity:1;fill-rule:nonzero;stroke:none"
         id="path34" />
      <path
         d="m 933.742,374.32 v 71.797 h 39.082 l -1.347,-8.222 h -27.52 V 416 h 23.035 v -8.437 h -23.035 v -24.59 h 30.02 v -8.653 h -40.235"
         style="fill:#231f20;fill-opacity:1;fill-rule:nonzero;stroke:none"
         id="path36" />
      <path
         d="m 991.262,374.32 v 71.797 h 10.218 V 374.32 h -10.218"
         style="fill:#231f20;fill-opacity:1;fill-rule:nonzero;stroke:none"
         id="path38" />
      <path
         d="m 1060.35,374.32 h -35.85 v 71.797 h 10.22 v -63.465 h 27.3 l -1.67,-8.332"
         style="fill:#231f20;fill-opacity:1;fill-rule:nonzero;stroke:none"
         id="path40" />
      <path
         d="m 1106.2,406.832 c -1.87,0.418 -3.96,0.625 -7.5,0.625 h -11.57 v -25.012 h 14.17 c 5.94,0 12.62,3.547 12.62,12.715 0,5.84 -3.25,10.625 -7.72,11.672 z m -2.09,30.125 c -1.66,0.508 -3.64,0.723 -7.28,0.723 h -9.81 v -21.883 h 11.37 c 6.35,0 8.53,1.141 10.62,3.953 1.35,1.875 2.09,4.59 2.09,6.992 0,5 -2.82,8.957 -6.99,10.215 z m 6.37,-61.492 c -3.24,-0.832 -7.62,-1.145 -11.37,-1.145 h -21.88 v 71.797 h 15.21 c 12.09,0 15.32,-0.312 19.8,-2.703 6.36,-3.332 9.69,-8.449 9.69,-15.012 0,-7.5 -4.26,-13.23 -13.02,-15.839 10.84,-2.403 16.04,-9.168 16.04,-18.555 0,-10 -6.14,-16.356 -14.47,-18.543"
         style="fill:#231f20;fill-opacity:1;fill-rule:nonzero;stroke:none"
         id="path42" />
      <path
         d="m 1171.11,436.527 c -2.08,0.84 -5.01,1.368 -8.76,1.368 h -7.5 v -25.02 h 6.99 c 6.35,0 9.9,1.047 12.4,3.438 2.18,2.089 3.55,5.527 3.55,9.699 0,5 -2.72,8.953 -6.68,10.515 z m 8.55,-62.207 c -2.09,4.063 -3.02,5.723 -5.94,10.625 -5.53,9.172 -7.3,12.188 -12.4,17.93 -1.88,2.082 -3.44,3.125 -6.47,3.223 V 374.32 h -10 v 71.797 h 20.11 c 8.55,0 13.55,-1.972 16.99,-5.203 3.24,-3.019 6.37,-7.824 6.37,-14.797 0,-10.945 -6.88,-19.707 -18.35,-19.707 h -0.84 c 3.13,-2.597 4.06,-3.75 6.26,-6.66 1.46,-1.992 3.65,-5.117 6.05,-8.867 l 10.41,-16.563 h -12.19"
         style="fill:#231f20;fill-opacity:1;fill-rule:nonzero;stroke:none"
         id="path44" />
      <path
         d="m 1234.06,439.555 c -12.71,0 -17.83,-9.481 -17.83,-27.93 0,-18.34 4.28,-30.848 18.34,-30.848 11.15,0 17.52,8.028 17.52,28.036 0,19.492 -4.49,30.742 -18.03,30.742 z m 0.51,-66.387 c -19.8,0 -29.59,15.742 -29.59,37.305 0,23.664 11.47,36.894 29.08,36.894 21.16,0 29.5,-17.605 29.5,-37.617 0,-21.992 -10.75,-36.582 -28.99,-36.582"
         style="fill:#231f20;fill-opacity:1;fill-rule:nonzero;stroke:none"
         id="path46" />
      <path
         d="m 1320.55,374.32 -18.87,38.145 c -3.65,7.394 -7.4,15.527 -8.75,19.687 l -0.62,-0.097 c 0.5,-6.153 0.72,-13.34 0.82,-20.02 l 0.43,-37.715 h -10.12 v 71.797 h 11.68 l 20,-39.597 c 3.02,-5.938 6.56,-15.215 7.09,-17.2 l 0.62,0.215 c -0.21,2.082 -1.03,13.438 -1.03,21.367 l -0.22,35.215 h 9.69 V 374.32 h -10.72"
         style="fill:#231f20;fill-opacity:1;fill-rule:nonzero;stroke:none"
         id="path48" />
      <path
         d="m 1391.41,374.32 -18.87,38.145 c -3.65,7.394 -7.4,15.527 -8.75,19.687 l -0.63,-0.097 c 0.51,-6.153 0.73,-13.34 0.82,-20.02 l 0.43,-37.715 h -10.11 v 71.797 h 11.68 l 20,-39.597 c 3.02,-5.938 6.56,-15.215 7.09,-17.2 l 0.62,0.215 c -0.21,2.082 -1.03,13.438 -1.03,21.367 l -0.22,35.215 h 9.69 V 374.32 h -10.72"
         style="fill:#231f20;fill-opacity:1;fill-rule:nonzero;stroke:none"
         id="path50" />
      <path
         d="m 675.598,641.09 h 138.32 v 53.203 H 675.598 V 785.16 H 602.805 V 552.504 h 72.793 v 88.586"
         style="fill:#2056ae;fill-opacity:1;fill-rule:nonzero;stroke:none"
         id="path132" />
      <path
         d="M 936.477,641.09 H 1074.8 v 53.203 H 936.477 V 785.16 H 863.664 V 552.504 h 72.813 v 88.586"
         style="fill:#2056ae;fill-opacity:1;fill-rule:nonzero;stroke:none"
         id="path134" />
      <path
         d="M 1402.85,552.504 V 785.18 H 1336.6 V 633.844 L 1191.48,785.18 h -67.15 V 552.504 h 67.15 v 148.742 l 144.36,-148.742 h 67.01"
         style="fill:#2056ae;fill-opacity:1;fill-rule:nonzero;stroke:none"
         id="path136" />
    </g>
  </g>
</svg>
